<svg width="19" height="22" viewBox="0 0 19 22" fill="none" xmlns="http://www.w3.org/2000/svg">
<g clip-path="url(#clip0_18_33)">
<path d="M6.12876 11.9262H4.47234C4.19903 11.9262 3.97541 11.7026 3.97541 11.4293V9.77289C3.97541 9.49958 4.19903 9.27596 4.47234 9.27596H6.12876C6.40207 9.27596 6.62569 9.49958 6.62569 9.77289V11.4293C6.62569 11.7026 6.40207 11.9262 6.12876 11.9262ZM10.6011 11.4293V9.77289C10.6011 9.49958 10.3775 9.27596 10.1042 9.27596H8.44775C8.17444 9.27596 7.95082 9.49958 7.95082 9.77289V11.4293C7.95082 11.7026 8.17444 11.9262 8.44775 11.9262H10.1042C10.3775 11.9262 10.6011 11.7026 10.6011 11.4293ZM14.5765 11.4293V9.77289C14.5765 9.49958 14.3529 9.27596 14.0796 9.27596H12.4232C12.1499 9.27596 11.9262 9.49958 11.9262 9.77289V11.4293C11.9262 11.7026 12.1499 11.9262 12.4232 11.9262H14.0796C14.3529 11.9262 14.5765 11.7026 14.5765 11.4293ZM10.6011 15.4047V13.7483C10.6011 13.475 10.3775 13.2514 10.1042 13.2514H8.44775C8.17444 13.2514 7.95082 13.475 7.95082 13.7483V15.4047C7.95082 15.678 8.17444 15.9016 8.44775 15.9016H10.1042C10.3775 15.9016 10.6011 15.678 10.6011 15.4047ZM6.62569 15.4047V13.7483C6.62569 13.475 6.40207 13.2514 6.12876 13.2514H4.47234C4.19903 13.2514 3.97541 13.475 3.97541 13.7483V15.4047C3.97541 15.678 4.19903 15.9016 4.47234 15.9016H6.12876C6.40207 15.9016 6.62569 15.678 6.62569 15.4047ZM14.5765 15.4047V13.7483C14.5765 13.475 14.3529 13.2514 14.0796 13.2514H12.4232C12.1499 13.2514 11.9262 13.475 11.9262 13.7483V15.4047C11.9262 15.678 12.1499 15.9016 12.4232 15.9016H14.0796C14.3529 15.9016 14.5765 15.678 14.5765 15.4047ZM18.5519 4.63798V19.2145C18.5519 20.3119 17.6616 21.2022 16.5642 21.2022H1.98771C0.890326 21.2022 0 20.3119 0 19.2145V4.63798C0 3.5406 0.890326 2.65027 1.98771 2.65027H3.97541V0.496926C3.97541 0.223617 4.19903 0 4.47234 0H6.12876C6.40207 0 6.62569 0.223617 6.62569 0.496926V2.65027H11.9262V0.496926C11.9262 0.223617 12.1499 0 12.4232 0H14.0796C14.3529 0 14.5765 0.223617 14.5765 0.496926V2.65027H16.5642C17.6616 2.65027 18.5519 3.5406 18.5519 4.63798ZM16.5642 18.966V6.62569H1.98771V18.966C1.98771 19.1027 2.09951 19.2145 2.23617 19.2145H16.3158C16.4524 19.2145 16.5642 19.1027 16.5642 18.966Z" fill="white"/>
</g>
<defs>
<clipPath id="clip0_18_33">
<rect width="18.5519" height="21.2022" fill="white"/>
</clipPath>
</defs>
</svg>
