<svg width="20" height="20" viewBox="0 0 20 20" fill="none" xmlns="http://www.w3.org/2000/svg">
<path d="M10 16.6664C11.7681 16.6664 13.4638 15.964 14.7141 14.7138C15.9643 13.4635 16.6667 11.7678 16.6667 9.99971C16.6667 8.23161 15.9643 6.53591 14.7141 5.28567C13.4638 4.03543 11.7681 3.33305 10 3.33305C8.23189 3.33305 6.5362 4.03543 5.28596 5.28567C4.03572 6.53591 3.33334 8.23161 3.33334 9.99971C3.33334 11.7678 4.03572 13.4635 5.28596 14.7138C6.5362 15.964 8.23189 16.6664 10 16.6664ZM10 1.66638C11.0944 1.66638 12.178 1.88193 13.189 2.30072C14.2001 2.71951 15.1187 3.33334 15.8926 4.10716C16.6664 4.88098 17.2802 5.79964 17.699 6.81069C18.1178 7.82173 18.3333 8.90537 18.3333 9.99971C18.3333 12.2099 17.4554 14.3295 15.8926 15.8923C14.3298 17.4551 12.2101 18.333 10 18.333C5.39167 18.333 1.66667 14.583 1.66667 9.99971C1.66667 7.78958 2.54465 5.66996 4.10745 4.10716C5.67025 2.54436 7.78987 1.66638 10 1.66638ZM10.4167 5.83305V10.208L14.1667 12.433L13.5417 13.458L9.16667 10.833V5.83305H10.4167Z" fill="#2907F5"/>
</svg>
